# xmcd
#
# Track frame offsets:
#	150
#	10675
#	19975
#	33075
#	44575
#	54700
#	66925
#	76900
#	87150
#	99425
#	111600
#	120650
#	132900
#	143300
#	155900
#	168275
#
# Disc length: 2435 seconds
#
# Revision: 4
# Processed by: cddbd v1.5.2PL0 Copyright (c) Steve Scherf et al.
# Submitted via: audiograbber 1.83.01
#
DISCID=d0098110
DTITLE=Dean Martin - Gold Vol. 1
DYEAR=1900
DGENRE=Blues
TTITLE0=Welcome To My World
TTITLE1=The Birds And The Bees
TTITLE2=The Door Is Still Open To My Heart
TTITLE3=Together Again
TTITLE4=The Glory Of Love
TTITLE5=Walk On By
TTITLE6=You're Nobody Till Somebody Loves You
TTITLE7=I Will
TTITLE8=It Keeps Right On A-Hurtin'
TTITLE9=In The Misty Moonlight
TTITLE10=You'll Always Be The One I Love
TTITLE11=Take These Chains From My Heart
TTITLE12=Lay Some Happiness On Me
TTITLE13=You've Still Got A Place In My Heart
TTITLE14=Bumming Around
TTITLE15=Release Me
EXTD=
EXTT0=
EXTT1=
EXTT2=
EXTT3=
EXTT4=
EXTT5=
EXTT6=
EXTT7=
EXTT8=
EXTT9=
EXTT10=
EXTT11=
EXTT12=
EXTT13=
EXTT14=
EXTT15=
PLAYORDER=
